<?xml version="1.0" encoding="UTF-8"?>
<svg id="svg2" xmlns="http://www.w3.org/2000/svg" xmlns:xlink="http://www.w3.org/1999/xlink" viewBox="0 0 2146.67 599.2">
  <defs>
    <style>
      .cls-1 {
        clip-path: url(#clippath-2);
      }

      .cls-2 {
        fill: url(#_未命名的渐变);
      }

      .cls-2, .cls-3, .cls-4, .cls-5, .cls-6 {
        stroke-width: 0px;
      }

      .cls-3 {
        fill: none;
      }

      .cls-7 {
        clip-path: url(#clippath-1);
      }

      .cls-4 {
        fill: #fff;
      }

      .cls-8 {
        clip-path: url(#clippath);
      }

      .cls-5 {
        fill: #74ceff;
      }

      .cls-6 {
        fill: rgba(255, 255, 255, .85);
      }
    </style>
    <clipPath id="clippath">
      <rect class="cls-3" width="2146.53" height="599.2"/>
    </clipPath>
    <clipPath id="clippath-1">
      <path class="cls-3" d="m8,139.04V21.01c0-1.38.49-2.56,1.46-3.54.98-.98,2.16-1.46,3.54-1.46h319.1c1.38,0,2.56.49,3.54,1.46.98.98,1.47,2.16,1.47,3.54v118.04c0,1.38-.49,2.56-1.47,3.54-.98.98-2.16,1.47-3.54,1.47H13c-1.38,0-2.56-.49-3.54-1.47-.98-.98-1.46-2.16-1.46-3.54h0Z"/>
    </clipPath>
    <linearGradient id="_未命名的渐变" data-name="未命名的渐变" x1="207.79" y1="426.9" x2="121.28" y2="649.25" gradientTransform="translate(7.97 618.27) scale(1 -1)" gradientUnits="userSpaceOnUse">
      <stop offset="0" stop-color="#0091c8"/>
      <stop offset="1" stop-color="#6244b2"/>
    </linearGradient>
    <clipPath id="clippath-2">
      <rect class="cls-3" width="2146.53" height="599.2"/>
    </clipPath>
  </defs>
  <g id="g10">
    <g id="g12">
      <g id="g14">
        <g class="cls-8">
          <g id="g16">
            <path id="path22" class="cls-4" d="m0,599.19h2146.67V0H0v599.19Z"/>
          </g>
        </g>
      </g>
      <g id="g24">
        <g class="cls-7">
          <g id="g26">
            <path id="path38" class="cls-2" d="m8,144.05h329.1V16.01H8v128.04Z"/>
          </g>
        </g>
      </g>
      <g id="g40">
        <g class="cls-1">
          <g id="g42">
            <path id="path48" class="cls-6" d="m31.11,54.25c-.37-.04-.62-.18-.8-.54-.2-.4-.4-.92-.65-1.69-.54-1.63-.95-2.79-1.3-3.52-.38-.76-.81-1.53-1.38-2.42-.1-.16-.27-.42-.55-.85-.29-.44-.47-.78-.57-1.04-.14-.28-.15-.5-.15-.71-.03-.28.08-.6.24-.95.14-.39.43-.83.81-1.43,1.44-2.38,2.47-4.24,3.01-5.59.16-.44.25-.79.25-1.05,0-.3-.08-.51-.25-.68-.11-.11-.25-.22-.44-.35-.23-.16-.29-.23-.29-.3-.03-.12.11-.15.32-.15.23,0,.55.07.95.21.39.11.76.33,1.08.56.35.27.55.6.55,1-.02.17-.07.48-.2.83-.24.53-.49,1.09-.77,1.55-.29.45-.7,1.04-1.26,1.73-1.26,1.47-2.2,2.76-2.93,3.81-.22.21-.28.52-.28.8-.03.27.12.53.35.8,1.12,1.25,2.25,2.74,3.35,4.47,1.08,1.7,1.64,3.24,1.64,4.52-.03.26-.06.52-.18.7-.14.15-.3.28-.55.28h0Zm7.57-14.36c-.19,0-.36-.05-.53-.15-.17-.14-.3-.25-.4-.45-.24-.44-.47-.75-.7-1-.27-.25-.56-.5-.98-.75-.14-.09-.23-.13-.34-.18-.11-.05-.2-.1-.27-.16-.12-.1-.11-.11-.11-.16,0-.13.11-.15.33-.15.34-.02.85.08,1.44.25.58.15,1.12.42,1.57.75.45.33.68.75.68,1.25,0,.23-.07.44-.21.56-.17.09-.3.19-.46.19h0Zm-3.08,1.98c-.21-.04-.34-.05-.51-.15-.18-.14-.3-.27-.39-.5-.21-.51-.42-.92-.65-1.25-.25-.37-.57-.59-1-.78-.44-.2-.6-.32-.6-.45-.01-.1.04-.13.13-.15.07-.03.2-.03.35-.03.26,0,.74.09,1.32.28.54.17,1.09.46,1.54.83.44.35.68.82.68,1.35-.02.27-.08.52-.25.65-.19.11-.37.2-.6.2"/>
            <path id="path50" class="cls-6" d="m66.48,45.15s.1.07.1.2c-.01.21-.04.44-.12.65-.52,1.59-1.12,2.97-1.85,4-.76.99-1.49,1.76-2.26,2.21-.79.42-1.49.66-2.18.66-1-.02-1.72-.3-2.19-.9-.51-.63-.71-1.33-.71-2.18-.02-.43.08-1.44.23-3.06.08-.91.13-1.46.13-1.73,0-.76-.14-1.33-.43-1.79-.32-.46-.76-.69-1.43-.69-.66-.04-1.39.22-2.22.65-.85.4-1.59,1.02-2.29,1.75-.66.63-1.17,1.42-1.54,2.24-.41.79-.61,1.46-.71,1.91-.12.44-.24,1.13-.42,2.07-.14.73-.25,1.26-.35,1.52-.12.22-.27.39-.5.39-.42-.04-.68-.17-.89-.51-.21-.39-.31-.76-.31-1.24-.03-.43.07-.8.2-1.21.52-1.65,1.24-3.17,2.12-4.66.87-1.52,2.09-3.36,3.65-5.61,1.05-1.58,1.78-2.61,2.13-3.16.43-.72.68-1.24.68-1.65-.03-.29-.09-.5-.28-.7-.16-.18-.26-.3-.37-.41-.15-.11-.18-.18-.18-.21-.02-.12.12-.15.35-.15.26-.02.63.1.98.3.34.17.64.48.88.83.19.31.35.73.35,1.13-.02.47-.13.92-.39,1.29-.29.33-.62.78-1.09,1.21-.3.28-.43.43-.43.43-.76.74-1.4,1.46-1.94,2.12-.57.65-1.06,1.37-1.54,2.14l-.68,1.15c.75-.76,1.55-1.29,2.39-1.72.8-.43,1.69-.64,2.54-.64.93,0,1.72.29,2.36.86.6.55.95,1.45.95,2.62-.04.57-.07,1.3-.2,2.13-.03.09-.05.35-.1.74-.08.35-.07.8-.07,1.21,0,.66.13,1.22.4,1.56.27.3.71.5,1.33.5.87-.02,1.78-.43,2.73-1.3.93-.9,1.87-2.28,2.75-4.24.02-.11.08-.17.14-.3.05-.16.11-.24.16-.3.03-.08.1-.1.15-.1"/>
            <path id="path52" class="cls-5" d="m67.3,91.3c-.83.29-1.7.44-2.7.43-1.02-.04-2.08-.06-3.25-.13-.94-.12-1.92-.17-2.95-.2-1.08-.03-2.08,0-3.15.1-.05.47-.04,1.05-.02,1.65,0,.6.06,1.25.12,1.95.06,1.57.09,3.39.08,5.37-.05,1.98-.36,4.01-1.03,6.07-.21.31-.37.47-.62.4-.26-.09-.51-.17-.78-.3-.09-.05-.12-.07-.15-.1-.55-1.16-.88-2.34-1.05-3.62-.19-1.3-.24-2.58-.22-3.88-.02-1.32.06-2.52.12-3.65.03-.7.11-1.36.13-1.97-.01-.63,0-1.16-.03-1.63-.49.07-.98.13-1.55.17-.61.04-1.07.18-1.52.4-.47.2-.74.61-.88,1.17-1.07.03-2.04-.2-3.02-.7-.99-.54-1.76-1.13-2.33-1.9-.27,1.27-.46,2.62-.67,3.95-.25,1.32-.71,2.35-1.47,3.05.34.56.53,1.12.5,1.65-.05.51-.28.78-.75.75-.77-.17-1.72-.19-2.95-.07-1.26.09-2.38.24-3.45.37-.5.05-.9.13-1.3.18-.4.02-.73.07-1,.07-.02.02,0,.1,0,.2-.02.33-.05.76-.15,1.17-.12.39-.47.73-1.1.93-.64-.36-1.16-.78-1.57-1.35-.43-.58-.83-1.17-1.23-1.8.26-.74.44-1.57.53-2.6.08-1.05.1-2.05.05-3.05-.07-1.02-.14-1.8-.28-2.4-.85,1.81-1.87,3.63-3.1,5.37-1.24,1.71-2.6,3.23-4.1,4.43.02-.37-.21-.63-.72-.8-.56-.17-1.01-.3-1.48-.4-.11,0-.1,0-.1,0,1.43-1.17,2.65-2.52,3.65-4.05.98-1.56,1.86-3.02,2.58-4.47.68-1.45,1.36-2.64,1.92-3.57.02-.21.02-.36-.05-.47-.11-.15-.22-.31-.45-.58-.06-.05-.05-.05-.05-.05.69-.37,1.22-.99,1.55-1.87.3-.93.62-1.76.85-2.63-.31-.08-.58-.03-.85.1-.3.13-.53.28-.8.45-.2.12-.35.26-.55.38-.23.11-.4.19-.6.22-.61.06-1.18-.02-1.75-.35-.57-.34-1.07-.77-1.5-1.33-.47-.56-.78-1.09-1.05-1.63.69-.34,1.54-.53,2.43-.6.88-.09,1.8-.12,2.75-.15.92-.05,1.86-.15,2.72-.35.13-.7.26-1.34.38-2.02.07-.71.19-1.39.22-2.12-1.06.3-2.06.56-3.07.67-1.04.08-1.98-.07-2.88-.55-.9-.51-1.67-1.42-2.3-2.82.3-.06.68-.05,1.05-.05.34,0,.75,0,1.15,0,.92.03,1.93.03,2.98-.03,1.02-.09,2.12-.24,3.22-.57.03-.53.06-1.1-.02-1.8-.11-.71-.19-1.23-.33-1.6-.11-.07-.22-.07-.35-.03-.16,0-.28.13-.45.23-.14.07-.27.18-.42.25-.19.04-.29.08-.43.05-.37-.14-.73-.34-1.2-.73-.5-.4-.9-.83-1.3-1.35-.4-.53-.71-1.03-.92-1.53-.22-.54-.26-.9-.13-1.2.36-.24.72-.25,1.05-.15.33.07.67.22,1,.35.18.08.4.18.6.25.2.05.4.12.6.15.11-.02.54-.03,1.23-.07.65-.09,1.49-.13,2.42-.23.89-.11,1.86-.2,2.78-.3.89-.14,1.7-.19,2.35-.27.64-.12,1.01-.14,1.07-.17.25-.12.5-.33.7-.7.17-.38.43-.57.7-.6.86-.1,1.77.07,2.62.42.83.31,1.58.85,2.2,1.5.61.64.99,1.43,1.12,2.33-.36.11-.68.28-1.05.45-.39.17-.72.3-1.05.4-.03.43-.02.96-.07,1.57-.06.58-.11,1.11-.18,1.47.03,0,.2.07.4.1.33.04.75.17,1.15.3.38.09.68.34.83.63.12.26.07.71-.23,1.27.92.03,2.06.02,3.28-.05,1.19-.1,2.44-.15,3.67-.25.33-.07.68-.06,1.05-.07.32-.03.72-.04,1.05-.07.59-.07,1.26-.13,1.88-.3.58-.19,1.21-.32,1.77-.45.59-.17,1.16-.32,1.68-.45.48-.17.97-.17,1.37-.1.49.07,1.09.28,1.78.65.66.33,1.19.83,1.52,1.4-.71.62-1.58,1.03-2.75,1.2-1.18.15-2.32.27-3.45.3-.42,0-.79.07-1.17.1-.41.02-.73.07-1.03.1.03.56.1,1.29.1,2.17-.03.86-.02,1.89-.05,3.02.09.23.37.28.8.15.42-.14.63-.32.6-.55,1.43-.17,2.64-.12,3.53.15.88.26,1.82.63,2.82,1.1.25.21.42.45.45.65,0,.18-.05.33-.25.4-1.21.32-2.48.58-3.95.73-1.48.11-2.78.26-3.95.33-.06.29-.04.7-.02,1.2,0,.49.02,1.02.02,1.55-.03.5,0,1.05.03,1.55-.02.48,0,.9-.03,1.2.24-.02.58,0,.93,0,.33-.02.71-.02,1.07-.05.41,0,.84,0,1.23-.02.35-.06.69,0,.92.02.07-.2.27-.37.5-.5.21-.15.45-.28.65-.45.88.07,1.82.22,2.75.45.89.22,1.85.48,2.75.75.04.13.16.25.28.35.09.07.22.2.32.3.19.13.38.36.55.58.16.21.23.57.2,1.07h0Zm-15.45-2.35c.03-.63.1-1.39.1-2.37-.03-1.02-.05-1.94-.15-2.87-.99.19-1.96.27-2.97.2-1.02-.1-1.91-.33-2.68-.8-.77-.5-1.28-1.2-1.55-2.2.34-.11.78-.14,1.23-.13.42,0,.94.04,1.47.07.6.03,1.33.11,2.08.13.74-.02,1.54-.06,2.37-.23,0-.2,0-.42,0-.65,0-.24,0-.47,0-.7,0-.67,0-1.35-.02-2.05-.06-.73-.13-1.3-.33-1.8-.56.09-1.16.17-1.87.23-.74.01-1.38.26-1.98.63-.99-.02-1.72-.28-2.27-.85-.57-.57-1.03-1.05-1.43-1.45-.31-.15-.57-.23-.9-.28-.34-.06-.72,0-1.15.13-.06.23-.07.47-.12.7-.07.22-.11.48-.18.75-.11.53-.21,1.08-.32,1.65-.15.55-.16,1.12-.13,1.65.33.33.61.76.73,1.17.1.39.04.66-.23.73-1.59.4-3.21.63-4.95.67-1.76.05-3.42.36-5.05.93-.16.67-.34,1.38-.62,2.15-.33.76-.58,1.38-.88,1.85.62.13,1.29.16,1.98.07.67-.11,1.41-.17,2.17-.27.41-.12.9-.18,1.4-.25.5-.09,1.02-.12,1.55-.15.11-.19.23-.35.3-.55.03-.22.22-.32.45-.35.82-.2,1.76-.17,2.77,0,1.01.13,1.95.49,2.8.97.85.48,1.44,1.16,1.77,2.03-.32.32-.65.53-1.05.6-.42.03-.76.16-1.07.27-.34.08-.51.46-.58,1.03.96.08,1.94.11,2.93.03.98-.11,1.96-.19,2.92-.33.52-.08,1.14-.13,1.73-.2.54-.1,1.16-.12,1.72-.15h0Zm-13.65-.9c-.76-.07-1.57.03-2.52.18-.98.14-1.88.33-2.78.55-.93.2-1.67.43-2.3.63.04.67.13,1.52.2,2.55.07,1.03.13,2.1.18,3.2.04,1.1.09,2.1.12,3,.86-.09,1.93-.2,3.2-.4,1.26-.23,2.32-.37,3.15-.5.23-.87.47-1.81.6-2.92.12-1.16.22-2.23.25-3.35.02-1.15,0-2.09-.1-2.93h0Zm24.6-21.95c-.34.22-.6.51-.9.82-.31.3-.62.63-.95.93-.87.88-1.77,1.73-2.72,2.47-.98.71-1.98,1.04-3.08.88-.19,0-.51.13-1.02.3-.56.13-.91.38-1.18.65.86-1.16,1.8-2.38,2.8-3.75.99-1.39,1.83-2.57,2.5-3.6-.34-.39-.59-.76-.87-1.18-.3-.45-.56-.79-.83-1.12.89-.28,1.83-.33,2.78-.18.91.11,1.76.53,2.42,1.13.66.58,1.02,1.48,1.05,2.65h0Zm-11.65,5.75c-1.19-.32-2.12-.85-2.87-1.65-.75-.8-1.36-1.77-1.83-2.9-.48-1.15-.9-2.32-1.3-3.55,1.11.21,2.2.72,3.2,1.45.97.71,1.78,1.66,2.33,2.77.55,1.1.71,2.41.47,3.87Zm-12.55-4.9c-1.96-.09-4.02.17-6.25.7.34.36.66.93.88,1.6.21.63.22,1.48.02,2.45.75-.08,1.63-.15,2.6-.25.93-.12,1.82-.25,2.55-.45.07-.63.11-1.31.13-2.03-.03-.75.04-1.39.07-2.03Zm-.55,7.15c-.38-.05-.82-.02-1.35.05-.54.04-1.1.15-1.7.25-.39.04-.73.13-1.1.2-.38.07-.72.12-1.05.15-.05.89-.11,1.73-.22,2.5-.15.73-.24,1.4-.38,1.9.63-.07,1.51-.18,2.53-.35.98-.19,1.91-.32,2.67-.45.06-.6.22-1.29.35-2.07.11-.81.22-1.51.25-2.17"/>
            <path id="path54" class="cls-6" d="m91.18,53.57c-1.39-.03-2.42-.27-3.2-.81-.82-.57-1.32-1.33-1.63-2.36-.34-1.07-.46-2.33-.46-3.92,0-1.61.11-3.45.32-5.59.11-1.43.2-2.33.2-2.78,0-.87-.06-1.48-.19-1.94-.16-.47-.41-.82-.84-1.09-.15-.08-.2-.18-.2-.28-.04-.23.23-.28.7-.28.86-.04,1.46.24,1.79.73.3.47.49,1.15.49,1.98-.01.54-.12,1.81-.35,3.76-.3,2.21-.4,4.1-.4,5.64-.03,1.39.13,2.52.39,3.3.24.76.7,1.34,1.32,1.68.6.34,1.49.51,2.61.51,1.96-.04,4.66-1.21,7.97-3.64,0-.04.11-.07.24-.15.1-.1.22-.13.29-.13.02-.02.07.03.07.1-.01.1-.11.28-.32.5-1.48,1.43-2.89,2.59-4.35,3.46-1.47.83-2.95,1.31-4.45,1.31Zm6.94-15.82c-.41,0-.66-.15-.88-.45-.27-.38-.51-.63-.76-.83-.29-.23-.61-.39-1.04-.55-.19-.07-.28-.09-.39-.13-.15-.05-.2-.07-.28-.1-.11-.07-.11-.07-.11-.13-.04-.22.36-.28,1.08-.28.72-.03,1.4.16,2.05.48.63.31.98.76.98,1.33-.04.19-.07.36-.21.47-.15.08-.29.17-.44.17Zm-2.18,2.18c-.46-.02-.75-.17-.95-.52-.27-.44-.53-.77-.83-1.07-.31-.32-.68-.53-1.13-.72-.1-.04-.16-.08-.29-.13-.15-.06-.22-.1-.28-.14-.08-.05-.09-.09-.09-.14-.04-.08.05-.12.16-.16.1-.09.23-.07.36-.07.47-.02,1.05.07,1.64.21.59.14,1.1.38,1.52.7.4.31.63.74.63,1.24,0,.21-.07.42-.22.56-.17.1-.33.21-.53.21"/>
            <path id="path56" class="cls-6" d="m121.96,51.46c.22.12.45.35.59.54.14.19.21.38.21.56-.03.14-.07.29-.2.41-.14.11-.28.19-.45.19-.27-.03-.53-.13-.88-.37-.83-.61-1.62-1.04-2.41-1.4-.06.92-.42,1.58-1.12,1.93-.73.31-1.61.53-2.74.53-.85-.04-1.63-.16-2.38-.49-.77-.33-1.13-.83-1.13-1.52-.04-.94.48-1.52,1.45-1.85.93-.37,2.01-.5,3.11-.5.43,0,.9.04,1.4.13l-.1-2.01c-.16-1.61-.18-2.93-.18-3.99v-1.3c-.03-.8-.02-1.59-.07-2.41-.04-.48-.1-.82-.19-1.05-.12-.25-.28-.43-.56-.58-.27-.14-.37-.26-.37-.37-.03-.11.07-.18.2-.23.13-.07.3-.07.5-.07.6,0,1.11.13,1.41.39.29.22.46.62.46,1.09-.04.16-.03.43-.1.8-.11.6-.16,1.06-.17,1.38-.07.55-.05.98-.05,1.23.34-.05.77-.08,1.2-.18.41-.11.79-.21,1.05-.32.16-.12.4-.13.65-.13.29-.04.56.06.76.19.21.11.31.31.31.57-.02.24-.24.48-.71.65-.48.15-1.11.25-1.89.25-.56-.02-.98-.07-1.38-.22-.02.92.03,1.82.1,2.62.05.78.17,1.72.3,2.79l.15,1.23c1.02.3,2.12.83,3.21,1.53h0Zm-4.49-.63c-.81-.28-1.51-.4-2.13-.4-.62-.01-1.27.1-1.97.3-.71.18-1.04.52-1.04.95-.02.35.25.66.75.82.49.12.99.24,1.45.24.92-.03,1.64-.13,2.16-.39.51-.29.78-.72.78-1.39v-.12"/>
            <path id="path58" class="cls-6" d="m139.13,36.67c-.1,0-.13-.04-.13-.13-.02-.09.12-.2.35-.35.21-.17.49-.33.83-.55.05-.05.33-.2.8-.5.19-.16.3-.23.3-.27-.03-.12-.11-.18-.32-.25-.02-.03-.18-.05-.48-.14-.33-.12-.67-.29-1.1-.59-.45-.31-.79-.66-1.05-1.08-.1-.12-.13-.21-.13-.27-.02-.08.03-.13.1-.13.06,0,.16.04.28.13.14.12.38.27.7.45.29.17.63.3.93.35.29.05.7.09,1.15.11.44-.01.73.04.83.04.48.03.97.12,1.4.25.33.12.71.28,1.03.49.29.18.48.44.48.69,0,.11-.07.28-.21.39-.17.07-.31.16-.49.16-.17,0-.27,0-.41-.03-.18-.05-.28-.03-.41-.03-1.28-.03-2.68.4-4.29,1.2-.09,0-.12.05-.15.05h0Zm-.4,17.77c-.17.03-.26.08-.33.08-.16-.04-.18-.03-.18-.1-.03-.12.11-.23.33-.33,1.8-.75,3.26-1.72,4.37-3.01,1.07-1.29,1.91-2.61,2.38-3.96.44-1.37.71-2.53.71-3.53,0-1.21-.21-2.1-.64-2.78-.44-.69-1.07-1.03-1.94-1.03-.45-.02-.83.1-1.24.3-.43.17-.89.49-1.44.85-.45.27-.77.48-1.07.63-.32.12-.56.23-.79.23-.43-.02-.77-.12-1.11-.35-.36-.27-.62-.52-.83-.85-.22-.35-.31-.63-.31-.9-.04-.35.07-.48.2-.48.07,0,.18.05.29.14.09.09.17.15.19.16.23.19.63.3,1.08.3.41-.02.95-.08,1.48-.23.53-.19.83-.24.9-.25,1.17-.36,2.22-.47,3.06-.47.92-.02,1.87.31,2.74.91.86.6,1.32,1.88,1.32,3.8,0,1.87-.62,3.85-1.87,5.83-1.25,1.96-3.68,3.66-7.31,5.05"/>
            <path id="path60" class="cls-5" d="m139.68,80.15c-1.06.04-2.03.06-2.97-.02-.96-.1-1.93-.18-2.93-.28-.78-.12-1.57-.18-2.4-.25-.85-.09-1.73-.12-2.7-.15-.54-.02-1.06.02-1.57.05-.53,0-1.03.07-1.53.1-.51.01-.92.07-1.37.1-.47.02-.91.05-1.38.05-2.04-.03-4.18.03-6.45.1-2.3.05-4.49.19-6.67.38-2.22.17-4.19.47-6.03.87-.23.03-.4.13-.6.2-.21.06-.4.13-.6.2-.46.13-.87.29-1.3.37-.47.06-.9.03-1.4-.17-.78-.31-1.57-.75-2.42-1.35-.86-.6-1.48-1.17-1.88-1.7,3.13-.51,6.39-.87,9.78-1.12,3.36-.29,6.86-.39,10.42-.42.11-.1.2-.2.2-.4,0-.23-.02-.4-.05-.6-.03-.15,0-.27-.02-.4-.04-.15,0-.25.02-.35-.46,0-.87.07-1.32.13-.49.02-.93.13-1.43.23-.64.09-1.27.18-1.92.25-.68.06-1.29.1-1.93.1-1.08-.07-2.05-.28-2.95-.75-.91-.48-1.58-1.32-2.05-2.55.73-.07,1.58-.1,2.45-.1.86-.02,1.77,0,2.7,0,.95-.02,1.96,0,2.98,0,.99-.02,2.04-.03,3.07-.1.1-.13.2-.25.2-.45-.01-.21-.02-.42-.05-.65-.04-.15,0-.27-.02-.43-.05-.16,0-.27.02-.37-1.17-.08-2.4-.05-3.8.05-1.42.07-2.68.25-3.85.45-.92.13-1.67.1-2.32-.1-.65-.22-1.29-.62-1.93-1.25-.36-.37-.63-.81-.9-1.33-.31-.52-.52-.99-.75-1.43.96-.12,1.89-.11,2.78-.03.88.07,1.79.18,2.72.28.11.02.28.06.43.07.12-.02.29.03.42.03.96.1,2.07.17,3.2.2,1.09,0,2.38-.05,3.75-.25.09-.73.1-1.33-.1-1.87-.21-.58-.45-1.06-.75-1.53-.09-.14-.14-.26-.22-.37-.13-.13-.18-.23-.28-.33-.37-.54-.63-.99-.9-1.47-.27-.52-.38-1.04-.35-1.67.48-.15.98-.14,1.45-.03.45.11.93.24,1.4.37.26.06.62.2.95.3.29.09.67.15,1,.15,1.04.82,1.69,1.82,1.88,2.95.16,1.12.17,2.22-.03,3.25.65,0,1.34.02,2.03-.05.66-.08,1.37-.13,2.07-.2.63-.11,1.26-.13,1.88-.17.61-.08,1.21-.07,1.77-.07,1.08,0,2.08.19,2.95.57.84.37,1.52,1.11,1.95,2.17-1.18.27-2.46.48-3.87.55-1.42.03-2.86.1-4.33.1-1.5-.02-2.87.08-4.2.25-.24.28-.34.63-.32.97-.02.32-.04.66-.18.93.44-.03.93,0,1.4-.03.42-.04.93-.02,1.4-.02.68-.05,1.4-.06,2.1-.08.69-.05,1.35.03,1.95.13.73.11,1.45.38,2.05.75.59.35,1.08.93,1.45,1.7-1.04.33-2.27.52-3.7.55-1.45.03-2.82.03-4.15,0-.44-.04-.86-.05-1.27-.05-.45-.03-.81,0-1.18,0-.11.2-.13.47-.2.72-.08.24-.1.54-.1.88.51-.07,1.1-.05,1.7-.05.58-.02,1.23,0,1.9,0,1.57.02,3.25,0,4.95-.07,1.67-.12,3.15-.36,4.35-.83.95.21,1.98.43,3.03.57,1.05.11,1.98.41,2.78.78.63.23,1.19.64,1.57,1.12.35.47.56,1.12.53,1.92h0Zm-8.6,4.3c-.54.3-1.16.6-1.87.8-.72.16-1.28.53-1.68,1-.22,1.18-.25,2.5-.15,3.9.08,1.37.23,2.82.4,4.25.05.48.13,1,.18,1.5.02.47.09,1,.12,1.5.11,1.63.13,3.23,0,4.8-.16,1.57-.67,2.82-1.6,3.75-1.16.19-2.14.12-3.02-.25-.92-.38-1.71-.85-2.48-1.45-.48-.38-.93-.75-1.4-1.15-.51-.43-.93-.78-1.4-1.15-.62-.47-1.19-.82-1.77-1.05-.59-.24-.88-.35-.88-.35.58-.13,1.17-.14,1.7-.12.52-.01,1.07.06,1.6.12.52.04,1.08.12,1.63.15.53,0,1.16.02,1.82-.05.46-.52.76-1.16.88-1.97.09-.84.14-1.7.07-2.65-.08-.98-.15-1.88-.25-2.78-.05-.3-.06-.52-.07-.77-.05-.25-.04-.49-.08-.73-.08-1.03-.13-2.04-.2-3.12-.1-1.09-.2-2.09-.4-3.03-.23-.95-.57-1.65-1.1-2.15-1.86.08-3.46.22-4.87.35-1.46.13-2.81.47-4.17,1,0,.28.04.57.03.83-.05.22-.04.49-.08.72-.04.26-.06.53-.07.78-.05.21,0,.52.02.82.23-.04.53-.07.8-.1.23-.05.53-.07.8-.1.63-.13,1.34-.19,2.02-.27.68-.11,1.34-.11,1.97-.07.83.03,1.66.2,2.38.5.69.27,1.31.83,1.77,1.6-.88.23-1.77.44-2.8.53-1.08.05-2.05.17-3.05.25-1,.06-1.88.27-2.65.57-.18.03-.29.08-.37.03-.1-.05-.14-.11-.18-.17-.07-.17-.17-.13-.3,0-.24.07-.31.33-.32.67-.04.31,0,.74.02,1.17-.03.14,0,.35,0,.55-.03.17,0,.38,0,.55.57.03,1.18.08,1.75.03.53-.05,1.13-.13,1.7-.23.44-.08.96-.12,1.48-.17.49-.05,1.06-.07,1.62-.07.63.31,1.28.68,1.85,1.05.54.35,1.13.75,1.7,1.15-.35.3-.72.46-1.17.47-.47,0-.93,0-1.43-.03-.27-.02-.47,0-.7,0-.26-.02-.48,0-.75,0-.38.02-.68.08-1.05.13-.37.04-.73.09-1.1.13-.7.12-1.35.23-2.05.3-.72.05-1.37.03-2-.1-.22.97-.3,1.92-.3,2.75-.01.82.02,1.67.05,2.5,0,.49.06,1.02.08,1.55,0,.5,0,1.1-.03,1.7-.93.14-1.72,0-2.37-.47-.66-.53-1.24-1.01-1.78-1.58-.21-.17-.34-.34-.52-.52-.23-.19-.36-.34-.53-.48.03-.39.11-.76.23-1.17.09-.45.24-.84.37-1.27.28-.88.54-1.76.73-2.67.14-.93.06-1.76-.38-2.53.46-.14.73-.43.8-.9.06-.49.12-.97.15-1.5-.01-.34,0-.66.03-.97,0-.36.07-.59.17-.83-.23-.07-.28.15-.25.55-.04.26-.03.47-.1.5-.11-.36-.17-.82-.22-1.45-.07-.67-.28-1.13-.68-1.5-.02-.02.12,0,.35.03.23-.01.4-.04.5-.18-.07-.92-.4-1.66-1.1-2.27-.72-.63-1.37-1.29-2-2.03.71-.67,1.63-1.13,2.68-1.4,1.02-.29,2.22-.45,3.52-.55,1.3-.12,2.65-.22,4.05-.35.45-.07.93-.04,1.38-.02.42-.01.89.06,1.32.12.44,0,.91.06,1.33.08.39,0,.79,0,1.12-.08.16-.06.38-.09.53-.17.11-.1.29-.16.42-.23.19-.16.43-.26.7-.37.25-.15.67-.16,1.2-.13,1.12,0,2.27.18,3.4.45,1.09.26,2.11.67,2.93,1.23.78.53,1.27,1.32,1.37,2.32"/>
            <path id="path62" class="cls-6" d="m179.5,36.35c-1.03.67-2.07,1.26-3.16,1.68-.64,1.68-1.3,3.51-2.04,5.48-.75,1.95-1.35,3.53-1.82,4.7-.11.18-.22.37-.41.5-.21.12-.38.2-.56.2-.23-.04-.38-.12-.48-.35-.13-.24-.15-.53-.15-.88-.03-.21.01-.31.04-.37-.01-.1.08-.17.16-.3.18-.35.34-.63.48-.9.27-.68.67-1.37,1.1-2.16.54-1.16,1.07-2.13,1.47-2.97.35-.86.73-1.7,1.01-2.57-.41.08-.7.12-.95.12-.72-.04-1.27-.16-1.7-.47-.46-.34-.76-.68-.98-1.08-.13-.2-.18-.35-.18-.5-.04-.12.04-.15.13-.15.03-.02.18.08.35.25.34.34.97.53,1.8.53.5-.01,1.15-.13,1.96-.38.03-.3.1-.61.1-.98-.02-.54-.11-.96-.32-1.28-.14-.22-.32-.36-.57-.49-.28-.16-.36-.21-.36-.26,0-.11.05-.13.16-.17.1-.07.24-.08.39-.08.23-.04.47.04.7.13.48.13.86.38,1.08.63.19.22.33.57.33.95,0,.3-.06.69-.18,1.05l.45-.23c.13-.13.25-.16.35-.24.07-.08.15-.15.15-.21-.04-.09-.08-.16-.23-.28-.07-.07-.16-.11-.29-.18-.17-.07-.19-.12-.19-.17-.03-.11.07-.1.23-.1l.9.03c.12-.01.27-.03.44-.07.16-.08.34-.08.49-.08.19,0,.42.07.57.21.13.11.21.32.21.54-.04.13-.04.33-.12.5-.12.14-.2.3-.35.4h0Zm5.14,3.66c-.79,0-1.37.26-1.84.78-.52.48-.71,1.3-.71,2.33-.03.94.12,2.32.35,4.09.09.7.17,1.23.2,1.58.78.18,1.58.48,2.29.79.67.27,1.23.62,1.57.94.34.33.55.7.55,1-.04.17-.06.34-.19.48-.14.09-.28.2-.46.2-.19-.02-.32-.05-.51-.15-.19-.11-.45-.26-.79-.48-.78-.53-1.55-.89-2.36-1.15,0,.13.03.34.03.63-.03.85-.35,1.58-1.04,2.09-.73.49-1.51.76-2.44.76-.59,0-1.13-.11-1.69-.34-.6-.25-1.02-.55-1.38-.96-.38-.44-.54-.91-.54-1.48-.02-.87.43-1.52,1.28-1.99.85-.49,1.9-.71,3.14-.71.37,0,.8.03,1.2.1-.14-1.87-.17-3.07-.17-3.69-.01-1.16.09-2.06.26-2.73.17-.7.54-1.24,1.09-1.72.53-.51,1.39-.89,2.53-1.24.3-.1.47-.24.47-.47-.04-.24-.12-.44-.36-.73-.25-.3-.49-.52-.74-.7-.13-.09-.15-.14-.15-.18-.03-.07.06-.05.18-.05.09-.02.32.03.57.09.24.05.47.13.65.21.56.22,1.12.63,1.65,1.14.51.5.8.99.8,1.44-.03.3-.12.56-.35.78-.27.17-.5.33-.8.33-.22-.02-.35-.04-.5-.11-.16-.1-.33-.2-.55-.37-.23-.2-.44-.29-.61-.37-.19-.08-.38-.13-.61-.13h0Zm-5.71,12.58c.93-.02,1.6-.23,1.9-.69.29-.47.46-1.1.48-1.92-.74-.19-1.37-.22-2-.22-.79,0-1.39.12-1.91.35-.54.2-.78.58-.78,1.03-.03.44.23.83.69,1.08.42.22,1,.37,1.62.37"/>
            <path id="path64" class="cls-6" d="m213.73,33.54c.73-.02,1.47.13,2.2.38.71.23,1.1.69,1.1,1.33-.04.2-.07.39-.21.51-.15.12-.29.19-.44.19-.41-.03-.66-.13-.88-.4-.3-.39-.56-.65-.81-.85-.27-.21-.61-.39-1.06-.55-.15-.05-.26-.09-.38-.11-.13-.03-.21-.05-.29-.09-.09-.06-.11-.08-.11-.15-.02-.19.29-.25.88-.25h0Zm-9.27,5.97c.98-.01,1.74.34,2.22,1.01.47.64.71,1.62.71,2.82-.02.6-.09,1.45-.28,2.56-.2,1.09-.47,2.2-.85,3.28-.43,1.05-.86,1.91-1.43,2.48-.31.28-.61.55-.93.75-.33.2-.6.3-.85.3-.29-.02-.44-.08-.57-.25-.15-.19-.23-.36-.31-.58-.1-.23-.14-.36-.17-.43-.19-.53-.59-1.12-1.21-1.9-.23-.25-.27-.37-.27-.45-.04-.05.03-.05.07-.05.06-.04.41.18.98.55l.45.3c.26.19.48.34.65.43.16.06.33.12.5.12.53-.02,1.07-.45,1.52-1.35.43-.92.79-1.95,1.04-3.15.25-1.23.38-2.17.38-2.92-.04-1.79-.54-2.63-1.63-2.63-.73,0-1.68.3-2.93.9-.81,3.44-2.04,6.61-3.76,9.4-.23.35-.45.66-.7.86-.26.17-.49.31-.73.31-.22,0-.34-.07-.48-.2-.14-.16-.2-.3-.2-.5-.03-.51.33-1.13.98-1.98,1.63-2.22,2.82-4.65,3.46-7.27-1.68.69-2.66,1.08-3.06,1.08-.39-.03-.71-.11-1.07-.33-.4-.23-.66-.49-.89-.81-.25-.33-.35-.63-.35-.91-.03-.16.04-.23.13-.23.04-.02.17.03.31.1.1.05.25.12.34.15.44.18.95.3,1.45.3.63-.05,1.2-.09,1.65-.21.42-.13,1.06-.33,1.83-.61.21-1.11.35-2,.35-2.73,0-.89-.17-1.49-.53-1.9-.13-.16-.27-.3-.46-.5-.23-.24-.29-.34-.29-.4-.03-.14.07-.17.21-.23.13-.06.32-.08.54-.08.31-.03.65.05,1,.15.32.07.63.22.83.37.22.19.4.49.4.8-.04.11-.05.4-.15.8-.12.31-.15.66-.2.98-.13.83-.23,1.63-.35,2.28.97-.34,1.88-.5,2.63-.5h0Zm6.97-3.34c-.08-.03-.14-.04-.26-.07-.16-.07-.22-.07-.27-.11-.09-.08-.09-.09-.09-.16,0-.2.27-.25.8-.25.8-.03,1.57.16,2.29.49.72.31,1.09.81,1.09,1.44-.02.21-.08.39-.24.53-.18.13-.34.2-.56.2-.37-.03-.62-.15-.8-.45-.28-.43-.55-.75-.84-1.01-.29-.29-.66-.46-1.11-.59Zm-1.53,3.11c1.28.02,2.34.3,3.17.75.83.44,1.43.98,1.79,1.58.35.6.55,1.16.55,1.68-.03.55-.16,1.08-.49,1.49-.37.37-.66.61-1.01.61-.21-.02-.38-.06-.55-.19-.17-.13-.27-.2-.3-.21-.28-.19-.55-.29-.95-.35-.43-.1-.88-.13-1.43-.2-.24-.05-.35-.08-.35-.15-.02-.09.1-.13.3-.15,1.05-.12,1.65-.18,1.7-.18.43-.12.76-.18.94-.3.15-.14.26-.31.26-.58-.02-.81-.38-1.54-1.13-2.2-.75-.7-1.61-1.12-2.58-1.35-.18-.05-.23-.08-.23-.15-.04-.08.1-.1.3-.1"/>
            <path id="path66" class="cls-5" d="m211.36,71.05c.06.12.02.25-.15.35-.14.1-.2.22-.2.35-1.89.11-3.64.2-5.33.2-1.71,0-3.39.07-5.13.2-.31-.03-.67.03-1.12.07-.49.04-.85.1-1.2.15-.39.03-.53.07-.53.07,1.83.39,3.58,1.15,5.15,2.15,1.55,1,2.8,2.21,3.7,3.62.89,1.41,1.23,2.96,1,4.62-.27.13-.46.21-.67.13-.25-.12-.44-.19-.67-.33-.13-.08-.21-.12-.33-.17-.12-.05-.24-.09-.37-.13-.08-.04-.12.02-.15.15-.08.12-.13.2-.2.2-.17-.07-.38-.07-.75-.13-.37-.09-.65-.07-.85-.07-1.33-.08-2.82-.07-4.57,0-1.77.06-3.47.17-5.17.3-1.73.11-3.18.27-4.45.4-.51.18-.85.47-1.05.8-.22.31-.53.53-1,.6-.67.07-1.23-.17-1.78-.7-.57-.57-1.09-1.12-1.62-1.75-.35-.46-.67-.83-1-1.2-.37-.39-.67-.65-1-.85.32-.48.86-.63,1.57-.47.71.12,1.29.31,1.73.47,1.26-.74,2.35-1.77,3.25-3.12.88-1.39,1.55-2.67,1.95-3.97-.94-.17-1.94-.13-3.02.1-1.1.2-1.97.53-2.67.9-.82-.46-1.6-.98-2.4-1.65-.82-.67-1.28-1.38-1.45-2.15,1.01,0,2.04-.03,3.03-.1.97-.08,1.97-.15,2.97-.25,1.14-.12,2.37-.18,3.62-.25,1.22-.09,2.56-.1,3.93-.1.13-.33.22-.63.25-.98,0-.37.07-.66.1-.92-.67-.69-1.37-1.34-2.2-2.03-.84-.7-1.43-1.34-1.8-1.97.77-.52,1.68-.74,2.63-.73.93.01,1.87.23,2.77.63.89.37,1.63.97,2.2,1.7-.17.71-.36,1.4-.67,2-.35.58-.54,1.28-.67,2.05.34-.04.89,0,1.57-.03.67-.05,1.4-.07,2.15-.17.73-.12,1.42-.24,2.02-.43.57-.19,1-.44,1.2-.77,1.4.28,2.8.69,4.1,1.17,1.28.47,2.4,1.16,3.3,2.03h0Zm4.35,30.7c-.27,0-.46.08-.67.13-.25.03-.43.09-.63.13-.41.04-.81.14-1.23.23-.46.07-.96.11-1.63.07-.43-.07-1.04-.12-1.92-.25-.9-.17-1.76-.29-2.63-.47-.89-.2-1.48-.36-1.85-.53-.67-.32-1.12-.71-1.47-1.22-.38-.53-.65-1.07-.9-1.65-.29-.62-.56-1.13-.93-1.63-.04-.66.02-1.26.05-1.87.02-.64.07-1.24.1-1.87.06-1.05.11-2.06.13-3.07.01-1.04-.08-1.98-.28-2.88-.11-.37-.19-.64-.37-.92-.19-.33-.37-.56-.57-.83-.31-.37-.49-.67-.67-1.03-.22-.35-.23-.76-.13-1.23,1.23,0,2.43.33,3.5.9,1.06.54,1.87,1.43,2.4,2.6-.44,1.76-.63,3.5-.6,5.2,0,1.7.17,3.65.4,5.85.34.37.77.53,1.23.47.41-.07.91-.13,1.37-.23.19-.1.41-.12.63-.17.18-.07.42-.07.62-.07.45,0,1.03.13,1.68.37.65.21,1.31.57,1.97.97.63.4,1.23.86,1.67,1.38.43.5.69,1.06.73,1.62h0Zm-25.5-13.15c-.36,1.33-.76,2.82-1.27,4.45-.52,1.62-1.12,3.19-1.82,4.68-.72,1.46-1.5,2.66-2.4,3.52-.38.33-.69.66-.98.88-.29.2-.49.37-.62.47-.08-.13-.16-.24-.28-.33-.13-.11-.22-.16-.32-.23-.24-.21-.37-.32-.5-.47-.14-.16-.17-.37-.1-.67.98-1.88,1.97-3.83,2.9-5.9.93-2.07,1.58-4.27,1.95-6.6-.07-.05-.07-.08-.1-.15-.43-.58-.82-1.14-1.15-1.72-.35-.6-.43-1.18-.3-1.78,1.03.13,1.91.27,2.62.4.68.13,1.41.47,2.07,1,.02.11.07.25.1.35.03.09.07.2.1.3.03.21.13.49.17.77.04.27.03.63-.07,1.03h0Zm6.95-2.1c-.07,1.02-.04,2.02-.02,2.95,0,.92.02,1.82.02,2.65.03,1.69.08,3.29.03,4.77-.09,1.48-.34,2.99-.87,4.53-.05-.03-.1-.07-.2-.1-.24-.11-.42-.2-.65-.3-.28-.1-.53-.13-.9-.1-.81-.74-1.19-1.7-1.17-2.9,0-1.22.11-2.5.27-3.9.01-.11.05-.17.05-.2-.04-.07.02-.1.05-.2.12-1.14.23-2.27.3-3.43.05-1.17-.05-2.24-.35-3.27-.11-.17-.15-.32-.25-.45-.14-.16-.2-.27-.3-.4-.2-.23-.31-.42-.42-.65-.14-.27-.14-.53-.08-.9.42-.37.94-.48,1.43-.35.45.12.95.38,1.4.75.44.37.86.73,1.23,1.1.18.19.35.33.45.4h0Zm4.35-7.6c-.12-.78-.43-1.47-.97-2.12-.55-.67-1.13-1.32-1.73-2-.61-.7-1.03-1.46-1.3-2.33-.55-.11-1.06-.04-1.57.07-.54.1-.86.21-1.03.28.19.31.4.73.5,1.2-.76.51-1.36,1.17-1.87,1.9-.54.7-1.09,1.43-1.73,2.1l.15-.5c-.57.27-.97.71-1.32,1.22-.39.47-.71,1.02-1.07,1.52.53-.08,1.4-.12,2.5-.17,1.08-.05,2.28-.13,3.55-.23,1.26-.12,2.44-.22,3.53-.37,1.06-.17,1.87-.34,2.37-.57h0Zm-20.8,12.45c-.12,1.21-.29,2.78-.58,4.65-.29,1.85-.91,3.85-1.87,5.95-1.93-.31-3.41-1.07-4.43-2.3-1.05-1.27-1.84-2.67-2.47-4.3.45-.03,1.03.06,1.67.18.61.07,1.29.26,1.93.42.62.16,1.13.3,1.5.4.01.03.07.05.1.05.82-.75,1.44-1.68,1.83-2.85.34-1.17.86-2.25,1.43-3.25.07-.1.18-.05.25.05.04.16.17.22.3.15.1.12.16.24.07.33-.1.05-.19.16-.32.22-.21.05-.27.12-.3.15,0,.05.15.08.35.05.25-.07.45,0,.55.1h0Zm0-8.3c-.72.32-1.35.46-1.95.38-.63-.09-1.18-.26-1.75-.53-.83-.41-1.57-.92-2.3-1.55-.75-.66-1.52-1.17-2.35-1.6-.2-1.06-.52-1.89-1.05-2.57-.57-.7-.98-1.44-1.35-2.27,1.43.19,2.87.47,4.23.8,1.33.32,2.54.82,3.57,1.45.25.69.63,1.33,1.07,1.87.44.54.86,1.12,1.23,1.72.34.6.58,1.37.65,2.3h0Zm2.6-13.7c-1.04.34-1.85.47-2.55.3-.73-.21-1.3-.52-1.8-1.05-.65-.67-1.14-1.52-1.53-2.55-.42-1.07-.74-2.02-1.07-2.95.97.2,2.04.57,3.13,1,1.07.42,1.99,1.06,2.73,1.87.7.8,1.1,1.94,1.1,3.37"/>
            <path id="path68" class="cls-5" d="m269.36,95.8c-.24.23-.5.45-.8.65-.31.16-.48.5-.55.9-1.47.74-3.08,1.15-4.85,1.15-1.3.02-2.48-.15-3.65-.55-1.18-.4-2.12-1-2.85-1.8-1.14-1.26-1.83-2.78-2.2-4.65-.39-1.9-.55-3.83-.55-5.9-.02-1.12.03-2.21.1-3.33.06-1.14.13-2.21.2-3.27.04-1.27.13-2.46.2-3.6.06-1.13.07-2.17,0-3.1-.54,0-.95.21-1.25.52-.33.29-.58.64-.85.98-.28.33-.65.57-1.15.7-1.47,1.52-2.93,3.01-4.5,4.42-1.61,1.4-2.93,3.04-4.1,4.87-.61.23-1.04.62-1.33,1.15-.3.51-.64,1-1.07,1.4.02,1.4.07,3.01.13,4.83.04,1.8.13,3.63.23,5.45.06,1.81.22,3.44.35,4.87-.16,0-.24.09-.33.17-.09.08-.14.17-.17.27-.1.13-.13.24-.2.33-.08.06-.18.11-.35.07-2.9-2-4.98-4.72-6.35-8.15-.03.03-.08.1-.15.2-.24.21-.51.58-.93,1.05-.46.45-.93.88-1.53,1.23-.62.33-1.28.53-2.05.53-.54-.35-.86-.83-.98-1.5-.15-.68-.31-1.37-.57-2.1.38-.45.9-.94,1.5-1.53.57-.59,1.15-1.23,1.65-1.95.49-.74.77-1.46.8-2.23.03-.67-.09-1.23-.38-1.8-.3-.58-.59-1.13-.92-1.7-.35-.59-.63-1.12-.9-1.65-.3-.54-.38-1.1-.35-1.7.03-.35.18-.75.45-1.25.25-.5.52-.88.75-1.15.87-1.05,1.97-1.96,3.33-2.8,1.31-.85,2.64-1.57,3.87-2.2.07-.74.09-1.36.07-1.97-.04-.62-.02-1.23-.02-1.83-.05-1.12-.03-2.17.02-3.23.03-1.06.31-2.14.78-3.27.72.31,1.42,1,2.07,2,.61.97,1.11,1.98,1.37,2.95.12.4.17.87.1,1.32-.07.42-.13.91-.2,1.38-.12.4-.17.79-.23,1.17-.09.35-.06.76-.02,1.13.04.65.27,1.18.6,1.55.33.33.6.83.8,1.4-.64.52-1.06,1.19-1.28,1.97-.24.77-.31,1.32-.27,1.62,1.04-.68,2.07-1.5,3.02-2.5.94-1.03,1.94-1.95,2.97-2.85,1.01-.91,2.09-1.78,3.18-2.63,1.07-.88,2.09-1.74,3.02-2.67,1.29-.59,2.46-.78,3.38-.63.9.11,1.79.64,2.62,1.47-.28,1.66-.48,3.59-.75,5.67-.28,2.06-.47,4.42-.6,7.02-.11,1.3-.1,2.63-.1,4,0,1.36.09,2.63.27,3.8.18,1.14.53,2.12,1.03,2.85.46.73,1.18,1.18,2.05,1.35.86.16,1.8.27,2.8.3.96.02,1.93.08,2.9.13.92.04,1.87.26,2.7.63h0Zm-33.8-16.55c-.67.46-1.39,1.1-2.27,1.8-.91.68-1.63,1.33-2.23,1.9.07.31.14.78.23,1.35.05.53.21,1.13.37,1.67.14.54.37.96.6,1.23.4-.49.88-1.18,1.45-2.15.53-.98,1.05-1.98,1.45-3.05.37-1.09.53-1.98.4-2.75Zm1,15.55c-.01-.35,0-.71,0-1.13-.01-.42,0-.84,0-1.27-.05-.49-.05-.92-.05-1.35-.04-.45,0-.83,0-1.2-.04-.02-.22.33-.65.98-.43.62-.85,1.32-1.25,2.02.14.33.45.72.85,1.05.4.3.77.63,1.1.9"/>
            <path id="path70" class="cls-6" d="m282.31,42.99s.07.04.07.13c-.04.07-.02.18-.05.3-.83,3-1.2,5.13-1.2,6.32-.02.47.09,1.01.27,1.63.11.49.2.89.2,1.15,0,.25-.06.51-.17.66-.15.12-.27.24-.45.24-.27-.03-.55-.19-.88-.57-.39-.41-.74-1.11-1.18-2.13-.48-1.03-.65-2.4-.65-4.14,0-1,.1-1.97.3-2.96.19-.99.49-2.14.85-3.46.33-1.31.58-2.22.65-2.76,0-.12.03-.24.03-.43-.03-.43-.07-.8-.2-1.14-.15-.38-.27-.61-.4-.81-.2-.3-.28-.44-.28-.53,0-.11.05-.13.15-.13.1-.03.25.04.41.13.14.05.25.13.29.15.31.15.7.49,1.09.93.36.4.59.99.59,1.65,0,.14,0,.27-.02.35-.05.45-.16.96-.33,1.43-.19.45-.41,1.07-.73,1.8-.44.98-.77,1.87-1,2.65-.26.74-.35,1.62-.35,2.54-.04.54.05,1.08.15,1.49.1.4.23.61.4.61.11-.03.24-.08.36-.25.09-.21.24-.42.34-.75.5-1.7,1.01-2.96,1.48-3.81.08-.23.18-.3.25-.3h0Zm5.39-6.12c-.5-.24-.83-.44-1.09-.66-.28-.25-.39-.41-.39-.54-.03-.12.04-.15.12-.15.02-.02.16.04.33.12.43.19,1.09.3,1.95.3.47-.03,1.16-.1,1.97-.3.79-.22,1.41-.41,1.79-.63.19-.16.51-.2.83-.2.26,0,.47.06.6.17.1.1.2.27.2.45,0,.26-.24.58-.73.83-.31.15-.86.33-1.74.53-.91.2-1.68.3-2.42.3-.66-.01-1.11-.08-1.43-.23Zm8.62-1.63c.72-.01,1.35.1,1.84.29.48.17.85.43,1.09.73.22.25.35.58.35.87,0,.18-.07.35-.2.45-.16.06-.27.15-.43.15-.42-.04-.69-.14-.88-.43-.27-.38-.48-.62-.74-.81-.27-.22-.61-.4-1.07-.61-.14-.05-.26-.1-.38-.14-.14-.04-.21-.08-.29-.13-.09-.04-.11-.1-.11-.16-.02-.17.27-.2.8-.2h0Zm-2.18,1.93c.3-.04.74.07,1.32.21.53.12,1.1.38,1.58.71.44.3.71.77.71,1.3,0,.21-.08.41-.24.54-.17.1-.34.19-.54.19-.43-.04-.72-.18-.9-.55-.23-.46-.44-.77-.72-1.07-.28-.33-.63-.54-1.06-.74-.04-.03-.11-.05-.24-.1-.14-.07-.22-.1-.28-.15-.07-.07-.09-.11-.09-.18-.01-.12.17-.17.45-.17h0Zm1.48,14.06c.44.42.68.84.68,1.23,0,.2-.07.4-.2.54-.17.12-.28.21-.45.21-.38,0-.87-.34-1.5-1.03-.37-.42-.83-.79-1.38-1.15l-.43-.25c-.14.96-.58,1.7-1.38,2.09-.81.37-1.7.59-2.68.59-.87,0-1.6-.19-2.18-.55-.62-.41-.88-.93-.88-1.7,0-.79.45-1.36,1.35-1.73.89-.37,1.88-.55,2.93-.55.44-.04.93.04,1.43.13v-.07c0-.63-.03-1.48-.07-2.58l-.03-.72-.07-2.36c-.73.03-1.2.1-1.5.1-.62-.03-1.23-.08-1.87-.25-.66-.2-1.13-.42-1.46-.75-.22-.2-.3-.35-.3-.45,0-.08.03-.07.08-.07,0,0,.15.03.35.1.2.04.54.16.98.24.41.04.9.11,1.4.11.51-.02,1.28-.1,2.28-.3-.03-.5-.02-1.14-.02-1.98,0-.43-.06-.72-.19-.9-.16-.21-.3-.34-.51-.48-.44-.24-.6-.41-.6-.53-.01-.19.17-.27.5-.27.6,0,1.11.11,1.54.34.4.2.64.56.64,1.01-.02.17-.03.38-.07.58.38.21.84.44,1.28.63.41.17.73.28.88.3.06-.02.23,0,.5.03.23-.01.46.07.59.15.11.05.19.2.19.35-.03.15-.11.34-.33.51-.23.16-.44.33-.67.46-.62.3-1.49.63-2.61.88.04,1.31.19,2.88.38,4.69.06.61.13,1.16.15,1.58.64.2,1.29.49,1.85.82.55.3,1.05.67,1.43,1.04h0Zm-3.86-9.47c.49-.14.83-.27.98-.4.07-.09.15-.17.15-.27-.03-.12-.08-.23-.23-.33l-.75-.58c-.12.45-.15.83-.15,1.08v.5Zm-3.93,10.53c1.71,0,2.75-.71,3.03-2.13-.79-.26-1.49-.38-2.16-.38-.53-.02-1.1.1-1.73.29-.65.17-.95.56-.95,1.11,0,.34.17.66.52.84.35.17.78.26,1.28.26"/>
            <path id="path72" class="cls-6" d="m312.06,53.57c-1.37-.03-2.42-.27-3.19-.81-.8-.57-1.32-1.33-1.63-2.36-.32-1.07-.47-2.33-.47-3.92-.04-1.61.11-3.45.33-5.59.12-1.43.2-2.33.2-2.78-.03-.87-.06-1.48-.19-1.94-.14-.47-.41-.82-.84-1.09-.14-.08-.2-.18-.2-.28-.02-.23.23-.28.7-.28.83-.04,1.47.24,1.79.73.31.47.49,1.15.49,1.98-.04.54-.12,1.81-.35,3.76-.28,2.21-.4,4.1-.4,5.64-.01,1.39.13,2.52.39,3.3.25.76.7,1.34,1.32,1.68.62.34,1.49.51,2.61.51,1.98-.04,4.66-1.21,7.97-3.64.01-.04.11-.07.24-.15.12-.1.22-.13.29-.13.03-.02.07.03.07.1-.04.1-.11.28-.33.5-1.46,1.43-2.89,2.59-4.35,3.46-1.5.83-2.95,1.31-4.45,1.31"/>
            <path id="path74" class="cls-5" d="m321.56,102.15c-.6.27-1.49.42-2.77.35-1.32-.08-2.64-.18-4.07-.35-.72-.09-1.4-.12-2.1-.17-.73-.06-1.37-.09-2-.13-2.59-.08-5.26-.07-8.07-.02-2.82.04-5.58.2-8.3.45-2.75.23-5.21.66-7.47,1.23-.2,0-.32.07-.45.13-.15.02-.25.11-.35.17-.23.07-.4.13-.6.17-.21.04-.43.07-.7.07-.77-.07-1.47-.32-2.1-.85-.65-.56-1.19-1.15-1.67-1.85-.51-.73-.89-1.3-1.23-1.8.34-.24.74-.33,1.13-.3.34,0,.76.12,1.13.25.18,0,.39.07.57.13.15.02.36.07.53.07,1.47.09,3.04.07,4.62-.07,1.57-.18,3.16-.33,4.73-.53,1.07-.17,2.18-.27,3.25-.4,1.06-.17,2.08-.2,3.05-.2.02-.21.09-.42.08-.65-.04-.25-.04-.48-.08-.75-.08-.3-.06-.53-.07-.8-.03-.3,0-.53.03-.8-.36,0-.67.07-1.03.1-.39.01-.71.08-1.07.15-.74.07-1.39.18-2.08.25-.7.05-1.34.07-1.97,0-.79-.09-1.48-.27-2.15-.6-.68-.33-1.27-.88-1.8-1.65.19-.63.55-.91.95-.92.4-.05.83.04,1.3.17.13.03.33.07.47.1.14,0,.31.05.48.05.36.03.82.03,1.25-.02.42-.09.88-.13,1.35-.23.58-.11,1.22-.18,1.87-.25.63-.08,1.32-.05,2.02.05.11-.37.21-.65.23-.95,0-.33,0-.58-.03-.85-.04-.24-.05-.48-.05-.75-.03-.29.05-.55.15-.85-.37-.01-.72,0-1.15.03-.44,0-.9.04-1.4.07-1.1.07-2.12.12-3.15.15-1.04.03-1.67-.05-1.9-.25-.17.02-.24.1-.33.2-.1.07-.06.23.07.4-.43.63-1.02,1.46-1.75,2.37-.77.89-1.5,1.66-2.3,2.23-1.13-.41-2.05-.92-2.85-1.55.92-1.29,1.86-2.52,2.77-3.75.91-1.25,1.64-2.67,2.18-4.3-.25-.61-.55-1.03-.95-1.3-.41-.29-.62-.72-.65-1.35.85-.42,1.87-.55,3-.45,1.09.1,2.07.4,2.8.9.56.37.99.9,1.17,1.5.15.6,0,1.28-.57,2.05.65-.05,1.48-.07,2.45-.12.93-.07,1.77-.11,2.4-.18.17-.87.25-1.79.15-2.77-.14-1-.53-1.64-1.3-1.97-1.24.18-2.48.32-3.75.35-1.27.03-2.37-.12-3.33-.45-.95-.37-1.62-.95-2.02-1.85.03-.57.13-1.26.2-2.17.05-.94.08-1.88.05-2.9-.07-1.05-.17-1.97-.4-2.85-.27-.9-.6-1.54-1.1-1.97-.36-.33-.75-.66-1.25-1.07-.51-.44-.95-.82-1.35-1.2-.4-.41-.6-.66-.6-.83-.02-.15.1-.22.3-.25.1-.06.24-.08.33-.13.07-.08.11-.17.07-.37.9-.4,2.23-.68,3.87-.95,1.61-.29,3.43-.48,5.33-.65,1.87-.2,3.68-.3,5.35-.4.49-.07,1.08-.05,1.65-.05.56-.02,1.12,0,1.65,0,1.24.02,2.46,0,3.57-.07,1.1-.12,2.04-.39,2.77-.93,1.49,0,2.9.17,4.2.4,1.27.19,2.4.67,3.3,1.3.88.61,1.48,1.6,1.75,2.9-.33.48-.67.79-1.1.87-.45.04-.89.14-1.37.18-.49.02-.99.23-1.53.6-.29,2-.63,3.99-1.1,5.87-.48,1.85-.92,3.77-1.35,5.67-.48.02-.82.28-1.05.75-1.45-.37-2.83-.57-4.2-.63-1.41-.06-2.67.07-3.9.37.17.33.29.73.27,1.18-.05.41-.04.94-.07,1.47-.04.33-.07.68-.1,1.05-.05.33-.03.73,0,1.1.98-.04,1.94-.12,2.83-.27.86-.15,1.64-.39,2.27-.73,1.04.41,2.11.88,3.13,1.35,1.01.43,1.74,1.23,2.17,2.3-1.28,0-2.43.03-3.47.07-1.06.03-2.11.11-3.18.17-1.09.03-2.3.17-3.7.3-.17.3-.21.59-.22.88-.02.25,0,.56.02.82,0,.2,0,.46,0,.68,0,.17-.03.42-.1.62.38.31.83.48,1.3.43.46-.09.93-.14,1.4-.27.17-.1.39-.13.58-.17.18-.07.36-.08.52-.08,1.12-.14,2.26.23,3.28.98.99.74,1.76,1.56,2.22,2.42-.71.08-1.4.13-2.1.1-.72-.04-1.4-.08-2.1-.15-.87-.07-1.67-.11-2.5-.13-.88-.02-1.68.06-2.55.23-.04.1-.02.38-.05.75-.05.35-.06.77-.07,1.2-.06.42,0,.85.03,1.25.59-.1,1.27-.07,2-.03.73.03,1.48.13,2.25.23,1.29.12,2.63.21,3.88.23,1.25-.03,2.21-.33,2.87-1.03,1.31-.11,2.58.07,3.75.5,1.13.43,2.27.9,3.3,1.4.08.01.17.07.2.1.02.16.15.31.25.43.06.1.22.22.35.32.18.16.38.42.55.65.14.2.22.58.15,1.05h0Zm-13.95-36c-2.07-.09-3.9-.07-5.5,0-1.64.04-3.17.19-4.73.37-1.57.16-3.31.44-5.27.78,0,.19,0,.33-.08.4-.1.05-.17.12-.27.15-.11.02-.19.08-.27.15-.09.04-.11.2-.07.4-.03.08,0,.25,0,.45-.03.46.02,1.01.05,1.53.03.5.17.91.4,1.17,1.3-.24,2.57-.37,3.83-.4,1.22-.04,2.22-.05,2.92-.05.14-.03.28,0,.35,0l-.1-.2c.95-.31,1.93-.39,2.88-.28.95.11,1.81.38,2.57.78.75.4,1.32.9,1.65,1.5-1.63.29-3.17.49-4.7.57-1.55.06-3.07.18-4.6.3-1.58.08-3.11.39-4.75.83-.02.33,0,.62.02.87,0,.22.04.51.08.77.03.25.07.55.1.85,0,.27.03.63,0,1,1.23.09,2.54.11,3.82.02,1.26-.1,2.54-.17,3.77-.27,1.46-.15,2.91-.23,4.23-.27,1.29-.07,2.49.04,3.52.27,0-.52.07-.99.1-1.47,0-.5.08-.96.15-1.43.09-1.53.23-2.97.27-4.43,0-1.47-.07-2.91-.37-4.37"/>
            <path id="path76" class="cls-6" d="m22.43,113c.28,0,.67,0,1.12,0,.43,0,.82,0,1.1,0,.24,0,.65,0,1.11,0,.45,0,.84,0,1.13,0-.02.12.01.24,0,.37-.47,0-.76.08-.96.13-.22,0-.33.14-.38.29-.08.1-.08.39-.08.73v7.1c0,1.51.34,2.71,1.03,3.51.65.8,1.69,1.2,3.01,1.2s2.43-.44,3.13-1.31c.67-.88,1.05-2.15,1.05-3.82v-6.36c-.03-.49-.03-.77-.08-.95-.05-.21-.19-.31-.4-.37-.21-.1-.57-.11-1.06-.15-.02-.17-.01-.26,0-.38.26,0,.59,0,.97,0,.36,0,.68,0,.91,0,.23,0,.54,0,.9,0,.32,0,.67,0,.94,0-.03.12.01.25,0,.38-.5,0-.78.09-.98.14-.23.01-.33.16-.38.32-.09.15-.08.44-.08.83v6.85c0,1.67-.43,3.07-1.3,4.09-.89.99-2.21,1.53-4.02,1.53-1.6,0-2.85-.43-3.81-1.29-.98-.87-1.43-2.11-1.43-3.77v-7.37c0-.43-.02-.68-.07-.85-.07-.19-.17-.29-.37-.34-.23-.09-.53-.1-1-.14-.02-.16-.01-.24,0-.38"/>
            <path id="path78" class="cls-6" d="m41.23,113.52l-.7,3.75h-.34l-.66-3.75c-.02-.26.09-.39.26-.49.15-.11.37-.16.58-.16.18,0,.41.05.59.16.17.1.27.27.27.49"/>
            <path id="path80" class="cls-6" d="m54.14,124.78l4.94-11.78c.2,0,.41,0,.64,0,.19,0,.41,0,.56,0,.08,0,.22,0,.43,0,.19,0,.44,0,.69,0,.23,0,.48,0,.69,0,.18,0,.35,0,.43,0-.03.12.01.25,0,.38h-.02c-.49,0-.78.08-.98.13-.22,0-.32.14-.37.29-.07.15-.07.39-.07.74l.18,10.75c0,.39.05.69.11.86.05.15.2.28.42.34.2.05.56.1,1.03.14,0,.11.01.25,0,.38h-4.6c-.04-.13-.01-.26,0-.37.41-.05.76-.08.97-.13.17-.06.34-.15.4-.29.02-.15.08-.39.07-.72l-.18-11.54-5.5,13.2c-.1.03-.17.05-.31.06-.16,0-.26.02-.37.02l-5.2-12.96-.36,11.22c-.01.29,0,.54.05.68.03.11.17.23.38.29.19.01.54.11.99.18-.02.11.01.24,0,.37h-3.7c-.06-.13-.01-.26,0-.38.42-.06.8-.11,1.01-.17.18-.1.34-.18.41-.35.04-.19.11-.45.12-.82l.4-10.75c0-.37,0-.59-.06-.74-.06-.15-.19-.24-.4-.29-.21-.08-.56-.09-1.04-.13-.02-.17-.01-.26,0-.38.32,0,.69,0,1.06,0,.36,0,.77,0,1.18,0,.14,0,.34,0,.58,0,.22,0,.46,0,.66,0l4.76,11.78"/>
            <path id="path82" class="cls-6" d="m65.25,127c-.03-.13-.01-.27,0-.4.42-.04.77-.09.99-.15.19-.1.4-.2.53-.42.1-.25.29-.58.46-1.07l4.44-11.96c.08-.04.23-.07.39-.09.14-.04.28-.03.37-.03l4.48,12.2c.14.44.32.8.43,1,.11.2.28.33.49.38.18.01.55.1,1,.14,0,.13.01.27,0,.4h-4.46c-.05-.13-.01-.26,0-.39.43-.04.78-.08.93-.13.12-.05.23-.16.23-.34-.02-.09-.01-.15-.04-.25-.03-.13-.07-.23-.12-.38l-1.38-3.93h-4.76l-1.3,3.68c-.15.32-.2.63-.2.79-.04.18.1.35.3.41.19.01.53.1.98.14-.01.09.01.27,0,.4h-3.76Zm4.2-6h4.3l-2.16-6.04-2.14,6.04Z"/>
            <path id="path84" class="cls-6" d="m85.4,120.56l-.5-.04v4.77c-.03.39.03.68.08.86.04.15.18.29.39.33.19.04.55.09,1.03.13-.03.13.01.26,0,.39h-4.56c-.05-.13-.01-.27,0-.4.43-.04.8-.08,1.01-.12.19-.05.33-.14.38-.29.04-.2.07-.4.07-.75v-10.74c-.03-.43-.03-.69-.08-.86-.06-.19-.18-.29-.39-.34-.22-.09-.54-.08-.99-.08-.05-.15-.01-.28,0-.42.15,0,.42,0,.71,0,.28,0,.57,0,.86,0,.26,0,.52,0,.69,0,.14,0,.43,0,.78,0,.32,0,.69,0,1.04,0,.33,0,.6,0,.76,0,.76,0,1.47.11,2.12.34.61.2,1.18.59,1.59,1.1.37.47.61,1.18.61,2.03-.02.99-.29,1.8-.88,2.42-.62.61-1.37,1.08-2.36,1.39v.06c.18.09.36.21.53.35.16.11.36.33.57.6.14.19.39.51.69.95.27.42.62.9.96,1.41.3.47.65.97.93,1.41.27.46.57.81.78,1.02.19.2.45.33.7.39.22.02.59.11,1.02.15,0,.13.01.26,0,.39h-3.1c-.16-.25-.36-.59-.64-1.04-.3-.45-.59-.93-.94-1.45-.36-.54-.69-1.04-1.03-1.55-.37-.54-.64-.94-.91-1.29-.27-.32-.43-.55-.6-.69-.19-.18-.36-.24-.55-.3-.21-.08-.45-.09-.77-.12h0Zm-.5-.71c.14.02.33.05.46.05.12-.03.26,0,.38,0,1.06-.03,1.92-.26,2.57-.79.63-.56.97-1.35.97-2.46-.03-1.01-.27-1.76-.82-2.28-.56-.54-1.35-.79-2.42-.79-.35-.02-.71.04-1.14.13v6.14"/>
            <path id="path86" class="cls-6" d="m100.37,114.56v10.71c-.03.36.02.69.06.87.03.16.16.29.36.34.16.04.54.09,1.02.13,0,.13.01.26,0,.4h-4.5c-.05-.13-.01-.27,0-.4.43-.04.8-.08,1.01-.12.19-.05.33-.14.38-.29.04-.2.07-.41.07-.75v-10.74c-.03-.43-.03-.69-.08-.86-.06-.19-.18-.29-.38-.35-.21-.09-.53-.09-1-.09-.05-.13-.01-.27,0-.4.16,0,.44,0,.73,0,.28,0,.57,0,.85,0,.25,0,.51,0,.7,0,.15,0,.42,0,.69,0,.27,0,.55,0,.83,0,.27,0,.51,0,.7,0,0,.13.01.27,0,.4-.49.04-.8.08-1,.12-.2,0-.32.13-.37.28-.06.15-.07.4-.07.76"/>
            <path id="path88" class="cls-6" d="m118.4,127l-9.5-12.04v9.97c-.04.35,0,.65.03.84.02.16.08.34.17.44.09.09.26.18.46.25.17.03.49.12.86.15,0,.13.01.26,0,.39h-3.7c-.03-.13-.01-.27,0-.4.45-.05.8-.11,1-.18.16-.1.32-.2.37-.39.02-.23.07-.51.07-.95v-9.91c-.01-.53-.03-.89-.08-1.13-.08-.27-.19-.39-.41-.47-.24-.1-.58-.15-1.07-.2-.04-.16-.01-.25,0-.38.28,0,.63,0,.97,0,.3,0,.68,0,1.01,0,.02,0,.17,0,.39,0,.21,0,.42,0,.59-.02l8.92,11.63v-9.55c-.03-.38,0-.65-.02-.86-.04-.25-.07-.36-.18-.45-.21-.25-.69-.34-1.48-.34-.01-.14-.01-.27,0-.4.28,0,.63,0,1.04,0,.38,0,.74,0,.98,0,.23,0,.54,0,.89,0,.31,0,.68,0,.97,0,0,.12.01.25,0,.38-.47.01-.8.12-1.01.19-.23.06-.33.21-.38.4-.08.18-.07.51-.07.95v12.08h-.82"/>
            <path id="path90" class="cls-6" d="m125.48,127c-.02-.13-.01-.27,0-.4.45-.08.78-.08.98-.13.18-.05.32-.15.37-.29.04-.18.07-.39.07-.74v-10.77c-.03-.42-.03-.69-.08-.86-.06-.17-.18-.29-.37-.35-.21-.08-.52-.09-.97-.09-.02-.15-.01-.24,0-.36.33,0,.62,0,.85,0,.21,0,.51,0,.82,0,.29,0,.74,0,1.29,0,.56,0,1.15,0,1.74,0,.57,0,1.13,0,1.64,0,.48,0,.93,0,1.26,0,.33,0,.53,0,.58,0,.06.76.19,1.56.34,2.41-.19,0-.28.01-.4,0-.15-.38-.22-.67-.34-.89-.14-.25-.25-.4-.38-.53-.2-.19-.39-.27-.65-.33-.29-.1-.58-.08-.97-.08h-2.76v5.91h2.1c.44-.03.81-.03,1.04-.08.21-.06.39-.19.48-.41.06-.26.18-.58.24-1.07.12-.05.29-.01.42,0-.04.05,0,.32-.02.69-.04.36-.02.78-.02,1.23-.02.4,0,.8.02,1.17-.02.36.02.61.02.73-.16-.01-.26.01-.42,0-.08-.58-.13-.94-.22-1.17-.09-.27-.25-.37-.46-.43-.24-.08-.53-.08-.96-.08h-2.22v6.35h2.66c.45-.03.89-.03,1.23-.09.3-.1.6-.19.79-.37.1-.14.28-.35.43-.64.15-.31.31-.64.47-1.04.09-.04.25-.01.38,0-.13.5-.2,1.03-.27,1.52-.09.45-.13.89-.17,1.21h-8.54"/>
            <path id="path92" class="cls-6" d="m193.2,124.78l4.94-11.78c.2,0,.41,0,.64,0,.19,0,.41,0,.56,0,.08,0,.22,0,.43,0,.19,0,.44,0,.69,0,.23,0,.48,0,.69,0,.18,0,.35,0,.43,0-.03.12.01.25,0,.38h-.02c-.49,0-.78.08-.98.13-.22,0-.32.14-.37.29-.07.15-.07.39-.07.74l.18,10.75c0,.39.05.69.11.86.05.15.2.28.42.34.2.05.56.1,1.03.14,0,.11.01.25,0,.38h-4.6c-.04-.13-.01-.26,0-.37.41-.05.76-.08.97-.13.17-.06.34-.15.4-.29.02-.15.08-.39.07-.72l-.18-11.54-5.5,13.2c-.1.03-.17.05-.31.06-.16,0-.26.02-.37.02l-5.2-12.96-.36,11.22c-.01.29,0,.54.05.68.03.11.17.23.38.29.19.01.54.11.99.18-.02.11.01.24,0,.37h-3.7c-.06-.13-.01-.26,0-.38.42-.06.8-.11,1.01-.17.18-.1.34-.18.41-.35.04-.19.11-.45.12-.82l.4-10.75c0-.37,0-.59-.06-.74-.06-.15-.19-.24-.4-.29-.21-.08-.56-.09-1.04-.13-.03-.17-.01-.26,0-.38.32,0,.69,0,1.06,0,.37,0,.77,0,1.18,0,.14,0,.34,0,.58,0,.22,0,.46,0,.66,0l4.76,11.78"/>
            <path id="path94" class="cls-6" d="m206.41,127c-.02-.13-.01-.27,0-.4.45-.08.78-.08.98-.13.18-.05.32-.15.37-.29.04-.18.07-.39.07-.74v-10.77c-.03-.42-.03-.69-.08-.86-.06-.17-.18-.29-.37-.35-.21-.08-.52-.09-.97-.09-.02-.15-.01-.24,0-.36.33,0,.62,0,.85,0,.21,0,.51,0,.82,0,.29,0,.74,0,1.29,0,.56,0,1.15,0,1.74,0,.57,0,1.13,0,1.64,0,.48,0,.93,0,1.26,0,.33,0,.53,0,.58,0,.06.76.19,1.56.34,2.41-.19,0-.28.01-.4,0-.15-.38-.22-.67-.34-.89-.14-.25-.25-.4-.38-.53-.2-.19-.39-.27-.65-.33-.29-.1-.58-.08-.97-.08h-2.76v5.91h2.1c.45-.03.81-.03,1.04-.08.21-.06.39-.19.48-.41.05-.26.17-.58.24-1.07.11-.05.29-.01.42,0-.04.05,0,.32-.02.69-.04.36-.02.78-.02,1.23-.02.4,0,.8.02,1.17-.02.36.02.61.02.73-.16-.01-.26.01-.42,0-.09-.58-.13-.94-.22-1.17-.09-.27-.25-.37-.46-.43-.24-.08-.53-.08-.96-.08h-2.22v6.35h2.66c.45-.03.89-.03,1.23-.09.3-.1.6-.19.79-.37.1-.14.28-.35.43-.64.15-.31.31-.64.47-1.04.09-.04.25-.01.38,0-.13.5-.2,1.03-.27,1.52-.09.45-.13.89-.17,1.21h-8.54"/>
            <path id="path96" class="cls-6" d="m222.25,127c-.05-.13-.01-.27,0-.4.44-.04.82-.08,1.03-.12.18-.05.33-.14.38-.29.03-.2.07-.41.07-.75v-11.86h-2.54c-.58-.02-.93.06-1.2.19-.31.09-.47.36-.62.68-.16.28-.3.79-.46,1.41-.16,0-.25.01-.38,0,.07-.5.13-.98.18-1.48.04-.52.1-.97.14-1.38.61,0,1.38,0,2.26,0,.87,0,2.03,0,3.44,0,1.43,0,2.59,0,3.46,0,.86,0,1.61,0,2.24,0-.01.4.07.86.12,1.37.02.5.11,1.01.16,1.49-.19,0-.28.01-.4,0-.22-.64-.33-1.09-.48-1.42-.16-.37-.35-.56-.61-.68-.3-.15-.66-.18-1.19-.18h-2.52v11.68c-.04.36.02.69.07.87.03.16.17.29.38.34.19.05.55.09,1.03.13.01.13.01.27,0,.4h-4.56"/>
            <path id="path98" class="cls-6" d="m234.41,127c-.02-.13-.01-.27,0-.4.45-.08.78-.08.98-.13.18-.05.32-.15.37-.29.04-.18.07-.39.07-.74v-10.77c-.03-.42-.03-.69-.08-.86-.06-.17-.18-.29-.37-.35-.21-.08-.52-.09-.97-.09-.02-.15-.01-.24,0-.36.33,0,.62,0,.85,0,.21,0,.51,0,.82,0,.29,0,.74,0,1.29,0,.56,0,1.15,0,1.74,0,.57,0,1.13,0,1.64,0,.48,0,.93,0,1.26,0,.33,0,.53,0,.58,0,.06.76.19,1.56.34,2.41-.19,0-.28.01-.4,0-.15-.38-.22-.67-.34-.89-.14-.25-.25-.4-.38-.53-.2-.19-.39-.27-.65-.33-.29-.1-.58-.08-.97-.08h-2.76v5.91h2.1c.45-.03.81-.03,1.04-.08.21-.06.39-.19.48-.41.05-.26.17-.58.24-1.07.11-.05.29-.01.42,0-.04.05,0,.32-.02.69-.04.36-.02.78-.02,1.23-.02.4,0,.8.02,1.17-.02.36.02.61.02.73-.16-.01-.26.01-.42,0-.09-.58-.13-.94-.22-1.17-.09-.27-.25-.37-.46-.43-.24-.08-.53-.08-.96-.08h-2.22v6.35h2.66c.45-.03.89-.03,1.23-.09.3-.1.6-.19.79-.37.1-.14.28-.35.43-.64.15-.31.31-.64.47-1.04.09-.04.25-.01.38,0-.13.5-.2,1.03-.27,1.52-.09.45-.13.89-.17,1.21h-8.54"/>
            <path id="path100" class="cls-6" d="m261.69,119.89c-.03,1.39-.3,2.67-.9,3.76-.64,1.05-1.45,1.94-2.54,2.55-1.13.62-2.39.93-3.88.93s-2.75-.3-3.82-.91c-1.07-.61-1.89-1.44-2.46-2.5-.61-1.08-.86-2.27-.86-3.62-.01-1.41.3-2.64.9-3.73.6-1.11,1.45-1.95,2.55-2.57,1.09-.63,2.39-.94,3.89-.94,1.45,0,2.73.3,3.79.9,1.03.57,1.88,1.43,2.46,2.49.57,1.04.87,2.27.87,3.64h0Zm-1.78.19c-.01-.83-.1-1.64-.3-2.43-.2-.83-.51-1.5-.94-2.13-.43-.67-.99-1.14-1.68-1.51-.71-.4-1.53-.56-2.52-.56-1.01-.02-1.83.19-2.52.56-.72.35-1.25.88-1.68,1.51-.43.59-.74,1.33-.94,2.1-.2.74-.3,1.55-.3,2.34-.03.78.1,1.57.3,2.35.2.74.52,1.49.96,2.13.43.61,1.01,1.16,1.72,1.54.7.37,1.56.57,2.56.57.97-.03,1.82-.18,2.51-.55.68-.39,1.24-.86,1.65-1.47.39-.63.71-1.31.9-2.08.18-.81.28-1.57.28-2.37"/>
            <path id="path102" class="cls-6" d="m269.93,120.56l-.5-.04v4.77c-.03.39.03.68.08.86.04.15.18.29.39.33.19.04.55.09,1.03.13-.03.13.01.26,0,.39h-4.56c-.05-.13-.01-.27,0-.4.43-.04.8-.08,1.01-.12.19-.05.33-.14.38-.29.04-.2.07-.4.07-.75v-10.74c-.03-.43-.03-.69-.08-.86-.06-.19-.18-.29-.39-.34-.22-.09-.54-.08-.99-.08-.05-.15-.01-.28,0-.42.15,0,.42,0,.71,0,.28,0,.57,0,.86,0,.26,0,.52,0,.69,0,.14,0,.43,0,.78,0,.32,0,.69,0,1.04,0,.33,0,.6,0,.76,0,.76,0,1.47.11,2.12.34.61.2,1.18.59,1.59,1.1.37.47.61,1.18.61,2.03-.02.99-.29,1.8-.88,2.42-.63.61-1.37,1.08-2.36,1.39v.06c.18.09.36.21.53.35.16.11.36.33.57.6.14.19.39.51.69.95.27.42.62.9.96,1.41.3.47.65.97.93,1.41.27.46.57.81.78,1.02.19.2.45.33.7.39.21.02.59.11,1.02.15,0,.13.01.26,0,.39h-3.1c-.16-.25-.36-.59-.64-1.04-.3-.45-.59-.93-.94-1.45-.36-.54-.69-1.04-1.03-1.55-.37-.54-.64-.94-.91-1.29-.27-.32-.43-.55-.6-.69-.19-.18-.36-.24-.55-.3-.21-.08-.45-.09-.77-.12h0Zm-.5-.71c.14.02.33.05.46.05.12-.03.26,0,.38,0,1.06-.03,1.92-.26,2.57-.79.63-.56.97-1.35.97-2.46-.03-1.01-.27-1.76-.82-2.28-.56-.54-1.35-.79-2.42-.79-.35-.02-.71.04-1.14.13v6.14"/>
            <path id="path104" class="cls-6" d="m295.69,119.89c-.03,1.39-.3,2.67-.9,3.76-.64,1.05-1.45,1.94-2.54,2.55-1.13.62-2.39.93-3.88.93s-2.75-.3-3.82-.91c-1.07-.61-1.89-1.44-2.46-2.5-.61-1.08-.86-2.27-.86-3.62-.01-1.41.3-2.64.9-3.73.6-1.11,1.45-1.95,2.55-2.57,1.09-.63,2.39-.94,3.89-.94,1.45,0,2.73.3,3.79.9,1.03.57,1.88,1.43,2.46,2.49.57,1.04.87,2.27.87,3.64h0Zm-1.78.19c-.01-.83-.1-1.64-.3-2.43-.2-.83-.51-1.5-.94-2.13-.43-.67-.99-1.14-1.68-1.51-.71-.4-1.53-.56-2.52-.56-1.01-.02-1.83.19-2.52.56-.72.35-1.25.88-1.68,1.51-.43.59-.74,1.33-.94,2.1-.2.74-.3,1.55-.3,2.34-.03.78.1,1.57.3,2.35.2.74.52,1.49.96,2.13.43.61,1.01,1.16,1.72,1.54.7.37,1.56.57,2.56.57.97-.03,1.82-.18,2.51-.55.68-.39,1.24-.86,1.65-1.47.39-.63.71-1.31.9-2.08.18-.81.28-1.57.28-2.37"/>
            <path id="path106" class="cls-6" d="m303.43,114.56v10.71c-.03.36.02.69.06.87.03.16.16.29.36.34.16.04.54.09,1.02.13,0,.13.01.26,0,.4h-4.5c-.05-.13-.01-.27,0-.4.43-.04.8-.08,1.01-.12.19-.05.33-.14.38-.29.04-.2.07-.41.07-.75v-10.74c-.03-.43-.03-.69-.08-.86-.06-.19-.18-.29-.38-.35-.21-.09-.53-.09-1-.09-.05-.13-.01-.27,0-.4.16,0,.44,0,.73,0,.27,0,.57,0,.85,0,.25,0,.51,0,.7,0,.15,0,.41,0,.69,0,.27,0,.55,0,.83,0,.27,0,.51,0,.7,0,0,.13.01.27,0,.4-.49.04-.8.08-1,.12-.2,0-.32.13-.37.28-.06.15-.07.4-.07.76"/>
            <path id="path108" class="cls-6" d="m312.35,113c.22,0,.55,0,.91,0,.33,0,.71,0,1.07,0,.34,0,.66,0,.9,0,2.75,0,4.88.59,6.37,1.77,1.49,1.17,2.23,2.9,2.23,5.16-.03,1.23-.21,2.29-.64,3.19-.47.85-1.02,1.63-1.78,2.2-.79.56-1.65,1-2.67,1.27-1.04.23-2.12.41-3.31.41h-5.42c-.02-.13-.01-.27,0-.4.45-.04.78-.08.98-.12.18-.04.32-.14.37-.29.04-.19.07-.41.07-.75v-10.76c-.03-.43-.03-.69-.09-.86-.06-.18-.19-.29-.39-.35-.21-.08-.53-.09-.98-.09-.05-.16-.01-.25,0-.37.3,0,.72,0,1.16,0,.42,0,.85,0,1.22,0h0Zm.68.76v12.42c.39.04.85.14,1.29.18.41.03.85.06,1.25.06,2.14-.03,3.81-.55,4.9-1.65,1.07-1.11,1.64-2.61,1.64-4.54-.04-2.07-.61-3.68-1.84-4.87-1.23-1.22-3.01-1.78-5.36-1.78-.4-.02-.72,0-1.09,0-.39-.02-.63.06-.79.18"/>
          </g>
        </g>
      </g>
    </g>
  </g>
</svg>