<?xml version="1.0"?><svg fill="currentColor" xmlns="http://www.w3.org/2000/svg"  viewBox="0 0 30 30" width="30px" height="30px"><path d="M20.8 14.4q0.704 0 1.152 0.48t0.448 1.12-0.48 1.12-1.12 0.48h-19.2q-0.64 0-1.12-0.48t-0.48-1.12 0.448-1.12 1.152-0.48h19.2zM1.6 11.2q-0.64 0-1.12-0.48t-0.48-1.12 0.448-1.12 1.152-0.48h19.2q0.704 0 1.152 0.48t0.448 1.12-0.48 1.12-1.12 0.48h-19.2zM20.8 20.8q0.704 0 1.152 0.48t0.448 1.12-0.48 1.12-1.12 0.48h-19.2q-0.64 0-1.12-0.48t-0.48-1.12 0.448-1.12 1.152-0.48h19.2z"></path></svg>